<?xml version="1.0" encoding="UTF-8"?><svg id="Layer_2" xmlns="http://www.w3.org/2000/svg" viewBox="0 0 189.02 75.14"><defs><style>.cls-1{font-family:'.SFUI-Regular_wdth_opsz4B0000_GRAD_wght', '.SFUI Regular wdth opsz4B0000 GRAD wght';font-size:54.12px;font-variation-settings:';opacity:0;}.cls-2{fill:#303030;}.cls-3{letter-spacing:-.13em;}.cls-4{letter-spacing:0em;}</style></defs><g id="Layer_1-2"><g><text class="cls-1" transform="translate(67.71 61.61)"><tspan class="cls-3" x="0" y="0">T</tspan><tspan class="cls-4" x="19.86" y="0">d</tspan></text><g><path class="cls-2" d="M42.46,53.47c.14,.12,.16,.33,.03,.47-.12,.14-.33,.16-.47,.03-.14-.12-.16-.33-.04-.47,.05-.06-.06,.12-.06,.1,.01-.04-.01,.04-.01,.04,0,0,0-.03,0-.06,.04-.72-.02-2.38,.03-4.34,.04-1.54,.05-3.23,.26-4.88,.43-3.57,2.15-6.73,3.64-9.24,.69-1.17,1.32-2.14,1.91-2.91,.56-.74,1.06-1.3,1.5-1.69,.33-.3,.63-.52,.98-.65,.27-.11,.56-.17,.86-.22,.41-.05,.89-.2,1.39-.05,.33,.1,.73,.4,.79,.86,.09,.7-.33,1.39-.81,2.15-.49,.77-1.09,1.56-1.6,2.28-.55,.78-1.09,1.41-1.44,1.91-.23,.32-.39,.51-.39,.52-.01,.05,0-.05,0-.03,.01,.03,.05,.09,.1,.16,.11,.14,.27,.31,.4,.52,.13,.21,.17,.46,.14,.71-.03,.24-.13,.47-.28,.68-.49,.67-1.43,1.07-2.51,1.39-1.1,.33-2.32,.53-3.43,.59-1.54,.1-2.85-.2-3.45-.68-.13-.09-.24-.22-.31-.38-.07-.16-.06-.39,.06-.56,.14-.19,.33-.24,.51-.28,.18-.04,.37-.05,.59-.05,.44,0,.94,.04,1.46,.07,.98,.06,2.17,.12,3.43,.57,1.55,.57,3.03,1.8,4.71,3.19,1.21,.99,2.43,2.17,3.81,3.3,1.41,1.16,3.01,2.23,4.62,3.22,2.14,1.35,4.31,2.42,6.34,3.24,1.98,.8,3.79,1.34,5.26,1.63,1.38,.27,2.42,.29,2.77,.13,.12-.06,.11-.02,.06-.13-.06-.16-.31-.44-.76-.77-.12-.09-.14-.26-.06-.38,.09-.12,.25-.14,.37-.06,.49,.35,.82,.65,.98,.97,.15,.32,0,.75-.32,.92-.64,.34-1.74,.27-3.18,.01-1.53-.27-3.39-.8-5.42-1.59-2.08-.81-4.31-1.88-6.51-3.23-1.63-1.02-3.25-2.1-4.71-3.3-1.4-1.16-2.63-2.35-3.8-3.33-1.67-1.39-3.1-2.57-4.46-3.08-1.13-.42-2.22-.51-3.2-.59-.52-.04-1.01-.08-1.41-.09-.19,0-.35,0-.46,.02-.1,.02-.05-.03-.09,0-.03,.04,.02-.09,.02-.08,0,0,.02,.05,.09,.1,.33,.26,1.58,.62,2.99,.52,1.06-.08,2.23-.29,3.26-.61,1-.31,1.81-.75,2.09-1.15,.09-.13,.14-.25,.15-.34,.01-.09,0-.16-.04-.22-.06-.09-.21-.24-.36-.42-.15-.18-.36-.43-.28-.8,.08-.37,.31-.54,.5-.8,.38-.54,.9-1.17,1.43-1.92,.52-.74,1.11-1.52,1.57-2.25,.45-.7,.71-1.34,.68-1.58-.01-.12-.03-.13-.2-.19-.18-.06-.6,0-1.06,.03-.26,.02-.49,.06-.7,.12-.25,.08-.49,.22-.8,.48-.41,.34-.9,.85-1.46,1.56-.58,.74-1.23,1.67-1.92,2.82-1.47,2.48-3.15,5.58-3.56,9.03-.19,1.61-.19,3.29-.22,4.83-.02,.98,0,1.89,.01,2.67,.01,.74,.03,1.33,.03,1.7v.04s0-.04,0-.02c0,0-.02-.06-.01-.04,0,.01-.03-.06-.02-.04,.01,.02-.11-.11-.07-.08M150.63,4.52c.17,.05,.27,.23,.22,.4s-.23,.27-.4,.22c-.15-.04-.25-.19-.23-.35,0-.02,0,.06,0,.05,0-.05,.05,.16,.03,.13-.03-.05,.1,.12,.08,.1-.06-.05,.11,.06,.1,.06-.03,0,0,0-.07,0-.54,.02-1.44,.1-2.59,.19-1.2,.1-2.64,.22-4.22,.33-3.1,.24-6.84,.49-10.99,.8-4.25,.32-8.86,.75-13.65,1.09-3.75,.25-7.59,.51-11.33,.67-4.74,.21-9.3,.24-13.6,.07-3.25-.13-6.33-.44-9.19-.82-3.67-.49-6.88-1.33-9.76-2.01-2.13-.5-4.1-.86-5.89-1.14-1.76-.27-3.34-.47-4.74-.63-2.2-.25-3.9-.34-5.2-.21-1.43,.14-2.26,.35-2.93,1.55-.52,.92-.91,2.4-1.47,4.33-.38,1.3-.84,2.77-1.36,4.41-.53,1.67-1.12,3.5-1.76,5.48-1.09,3.41-2.39,7.12-3.62,10.81-1.51,4.51-2.99,8.83-4,12.47-.46,1.63-.75,3.1-.94,4.4-.19,1.26-.28,2.35-.35,3.28-.09,1.09-.1,1.94-.1,2.53,0,.42-.01,.73-.03,.92,0,.04,0,.08-.01,.11,0,.02,0,.04-.01,.06,0,.03,.11,.07-.17,.22-.13,.07-.29,.04-.4-.06-.18-.18-.09-.17-.1-.2,0-.06,0-.09-.01-.15,0-.18-.02-.47-.03-.88-.02-.62-.02-1.5,.05-2.62,.07-.94,.17-2.06,.36-3.34,.2-1.33,.5-2.83,.96-4.5,1.03-3.68,2.51-8,4.03-12.5,1.24-3.69,2.54-7.4,3.64-10.8,.64-1.98,1.23-3.81,1.76-5.48,.52-1.63,.97-3.1,1.35-4.39,.56-1.92,.95-3.43,1.55-4.49,.81-1.41,2.05-1.77,3.54-1.89,1.38-.11,3.12,0,5.35,.28,1.4,.17,3,.37,4.76,.65,1.81,.29,3.79,.66,5.94,1.17,2.89,.68,6.08,1.51,9.7,1.99,2.84,.38,5.91,.67,9.13,.8,4.28,.17,8.82,.13,13.55-.08,3.73-.18,7.56-.45,11.31-.71,4.79-.32,9.4-.74,13.66-1.04,4.16-.29,7.9-.52,11-.75,1.58-.12,3.01-.24,4.21-.33,1.15-.09,2.05-.17,2.63-.19,.06,0,.12-.01,.16-.01,.02,0,.01-.01,.11,0h.01M22.79,27.33c.21,0,.38,.18,.38,.39,0,.21-.17,.38-.38,.38-.89,0-1.53,.05-1.84,.12-.07,.02-.11,.03-.12,.04,0,0,.05-.05,.03-.02-.03,.02,.11-.24,.09-.16-.01,.04,0-.19,0-.14,.01,.07-.09-.18-.07-.15,.02,.03-.06-.06-.05-.05,.02,.01,0,0,.06,.02,.34,.1,1.14,.22,2.45,.16,1.46-.09,3.42-.34,5.87-.83,2.59-.52,5.64-1.6,9.2-2.63,2.45-.71,5.11-1.45,7.95-2.2,2.87-.76,5.92-1.53,9.1-2.29,4.71-1.13,9.75-2.06,15.03-3.09,9.31-1.8,19.22-3.58,28.5-5.33,1.65-.31,3.29-.63,4.94-.95,2.09-.39,4.16-.74,6.19-1.1,3.68-.65,7.27-1.25,10.68-1.79,3.02-.48,5.85-.85,8.56-1.21,1.63-.21,3.21-.42,4.75-.61,3.81-.46,7.07-.84,9.71-1.08,1.7-.16,3.1-.25,4.2-.29,1.03-.04,1.75-.03,2.15-.01,.19,.01,.32,0,.33,0,0,0-.02,0-.01,0,0,0-.11,.04-.07,.02,.16-.07,.35,.01,.42,.18,0,.02,.01,.03,.02,.05,.07,.3-.11,.33-.16,.36-.2,.12-.31,.09-.54,.09-.38,0-1.09,.02-2.1,.08-1.09,.06-2.48,.16-4.16,.34-2.62,.29-5.86,.7-9.67,1.2-1.54,.2-3.12,.41-4.74,.63-2.7,.37-5.53,.75-8.53,1.23-3.4,.55-6.98,1.15-10.66,1.8-2.03,.36-4.1,.72-6.17,1.11-1.65,.31-3.29,.62-4.94,.93-9.29,1.74-19.2,3.5-28.51,5.28-5.28,1.01-10.31,1.92-15,3.03-3.18,.75-6.22,1.51-9.1,2.25-2.83,.73-5.49,1.45-7.94,2.15-3.54,1.01-6.6,2.09-9.28,2.61-2.49,.48-4.48,.72-5.99,.79-1.36,.08-2.23-.03-2.69-.15-.11-.03-.19-.06-.29-.12-.1-.07-.26-.26-.2-.49,.05-.21,.19-.28,.28-.32,.09-.04,.18-.07,.28-.1,.43-.1,1.1-.15,2.03-.14"/><path class="cls-2" d="M99.7,27.56c.21-.07,.44,.05,.51,.26,.02,.07,.03,.15,0,.22-.01,.06-.04,.1-.06,.13-.03,.04-.06,.08-.1,.11-.26,.18-.46,.17-.73,.22-.27,.06-.57,.12-.82,.23-.27,.11-.62,.43-1.1,.79-.86,.65-1.97,1.28-2.85,2.05-1.33,1.19-1.9,2.82-1.67,3.96,.09,.45,.29,.81,.63,1.06,.71,.52,2.2,.61,3.54,.4,1.25-.18,2.31-.68,2.83-1.3,.21-.25,.31-.53,.32-.85,0-.32-.08-.68-.23-1.01-.27-.57-.77-1.12-1.21-1.49-.28-.22-.45-.4-.48-.4-.01,0,.18-.03,.15-.02-.03,.01,.08-.06,.07-.04-.02,.02,.02-.02,.01,0-.02,.04-.05,.14-.08,.27-.07,.28-.13,.68-.2,1.14-.3,1.76-.97,4.24-1.47,6.79-.49,2.49-.66,4.88-.73,6.71-.04,.82,.04,1.51-.03,2.11-.04,.38-.03,.75-.3,1.06-.23,.27-.59,.35-.91,.33-.33-.02-.65-.13-.94-.3-.38-.23-.62-.64-.78-1.13-.17-.49-.27-1.08-.31-1.72-.06-.78-.15-1.71,.04-2.75,.34-1.88,1.71-3.76,3.04-5.6,1.31-1.81,2.82-3.46,4.24-4.94,1.35-1.4,2.62-2.65,3.79-3.77,1.14-1.09,2.16-2.05,3.04-2.91,.84-.83,1.54-1.56,2.03-2.2,.47-.61,.74-1.13,.78-1.55,.01-.15,.14-.26,.29-.24,.14,.01,.25,.14,.24,.29-.08,1.19-1.25,2.47-2.91,4.15-.87,.88-1.89,1.85-3.01,2.95-1.15,1.12-2.41,2.38-3.74,3.78-1.41,1.48-2.9,3.1-4.18,4.87-1.33,1.84-2.63,3.67-2.93,5.32-.17,.92-.09,1.78-.04,2.57,.04,.6,.14,1.13,.28,1.54,.14,.39,.32,.65,.49,.75,.19,.11,.41,.18,.6,.19,.18,0,.29-.04,.33-.09,.02-.03,.07-.27,.1-.66,.04-.48-.05-1.18-.03-2.06,.07-1.86,.24-4.29,.74-6.84,.51-2.58,1.18-5.07,1.48-6.76,.09-.47,.18-.88,.28-1.2,.05-.15,.1-.29,.18-.41,.04-.06,.09-.12,.17-.18,.09-.05,.23-.08,.34-.04,.35,.08,.49,.37,.71,.56,.5,.4,1.06,.99,1.4,1.68,.21,.39,.34,.84,.36,1.29,.01,.46-.11,.94-.42,1.34-.68,.86-1.91,1.42-3.3,1.64-1.47,.21-3.11,.19-4.15-.57-.53-.39-.81-.97-.93-1.56-.3-1.49,.41-3.35,1.93-4.69,.94-.85,2.07-1.5,2.87-2.11,.44-.34,.8-.7,1.27-.9,.67-.28,1.32-.32,1.39-.37,.04-.03,.08-.05,.13-.06,0,0-.03,0-.02,0m-23.97-.07c.21,.02,.37,.2,.35,.41-.02,.21-.2,.37-.41,.35-.78-.06-1.62,.03-2.35,.11-.46,.06-.86,.07-1.17,.04-.15-.02-.28-.03-.42-.1-.07-.04-.17-.09-.24-.21-.08-.14-.07-.34,0-.46,.24-.4,.61-.46,.99-.58,.4-.13,.86-.24,1.3-.38,1.48-.48,3.15-1.08,4.59-1.35,.74-.14,1.39-.18,1.92-.07,.29,.06,.67,.05,.95,.39,.26,.31,.24,.71,.19,1.09-.06,.37-.17,.76-.28,1.11-.24,.81-.6,1.53-.76,2.48-.21,1.25-.15,3.04-.07,5.02,.04,1.06,.02,2.1,.15,3.02,.2,1.35,.77,2.41,1.4,3.31,.61,.88,1.29,1.58,1.69,2.36,.47,.92,.43,1.99-.05,2.88-.48,.9-1.38,1.66-2.55,2.08-.78,.28-1.61,.28-2.53,.27-.97-.03-2.13-.01-3.44-.2-2.02-.29-4.17-1.03-5.69-1.91-.76-.43-1.35-.91-1.66-1.47-.31-.55-.31-1.22,0-1.79,.5-.92,1.72-1.72,3.3-2.8,1.69-1.16,3.73-2.67,6.15-4.17,1.72-1.06,3.57-2.1,5.38-3.03,1.76-.91,3.47-1.66,4.98-2.26,1.74-.7,3.16-1.1,4.22-1.37,.58-.14,1.02-.22,1.33-.28,.16-.03,.26-.07,.31-.09,.02,0,.01,0,.02,0,0,0-.07,.11-.05,.07l.63,.38c-.2,.27-.3,.15-.34,.15-.04,0-.06,0-.09-.01-.05-.01-.11-.02-.17-.04-.12-.03-.22-.01-.39-.19-.14-.14-.13-.36,0-.49,.12-.12,.32-.13,.46-.03,.04,.03-.12-.06-.09-.05,.04,.01-.09-.01-.08-.01,.03,0,0,0,.05-.01,.08-.02,.2-.05,.35-.1,.31-.1,.72-.25,1.18-.42,.95-.34,2.02-.74,2.89-1,.56-.16,1.04-.29,1.4-.38,.2-.05,.37-.1,.5-.12,.06-.01,.11-.02,.14-.03,.02,0,.03,0,.05,0,0,0,.01,0,.03,0,.22-.01,.41,.16,.42,.38s-.16,.41-.38,.42c-.14,0-.28-.06-.36-.18-.05-.07,.15,.14,.12,.12-.03-.02,.09,.04,.07,.03-.05-.02,.09,.02,.08,.02-.01,0,.02,0,.02,0,0,0-.03,0-.08,0-.1,.01-.26,.04-.45,.08-.34,.08-.82,.21-1.36,.36-.83,.24-1.9,.63-2.85,.97-.46,.16-.88,.31-1.21,.41-.16,.05-.3,.09-.41,.11-.11,.02-.21,.17-.48-.08l.43-.54c.05,.04-.03-.02,0,0,.03,.01,.08,.02,.12,.03,.04,0,.08,.01,.1,.02,0,0-.05,0-.02,0,.02,0-.14,.04-.09,.02,.03-.01-.15,.11-.11,.07,.05-.04-.13,.3-.11,.21,.03-.2,.22-.34,.42-.31,.2,.03,.34,.22,.31,.42,0,.02-.01,.05-.02,.07-.06,.16-.18,.25-.31,.32-.13,.07-.29,.12-.5,.17-.32,.07-.74,.15-1.29,.29-1.04,.26-2.42,.65-4.12,1.33-1.49,.6-3.18,1.34-4.92,2.23-1.79,.93-3.63,1.95-5.33,3.01-2.39,1.48-4.41,2.99-6.12,4.15-1.58,1.07-2.73,1.89-3.08,2.52-.22,.39-.22,.73-.02,1.08,.21,.38,.68,.8,1.38,1.2,1.43,.8,3.52,1.49,5.44,1.74,1.24,.16,2.35,.13,3.34,.13,.9,.01,1.62,0,2.22-.22,1-.36,1.73-.98,2.1-1.67,.36-.67,.4-1.43,.06-2.1-.32-.62-.98-1.34-1.62-2.27-.66-.96-1.3-2.14-1.52-3.65-.15-1.01-.13-2.07-.18-3.1-.08-1.98-.15-3.8,.09-5.19,.19-1.07,.58-1.84,.8-2.58,.11-.34,.21-.7,.26-.99,.04-.28,0-.46-.02-.48,0,0-.16-.03-.51-.1-.38-.08-.93-.05-1.61,.08-1.34,.27-3,.86-4.48,1.34-.47,.16-.94,.28-1.31,.39-.18,.06-.33,.11-.43,.16-.09,.04-.06-.01-.09,.04-.04,.05,.05-.18,.04-.12,0,.06-.04-.24-.02-.19,.02,.05-.09-.13-.07-.11,.02,.02-.05-.04-.04-.04,.02,.01,.04,.01,.14,.03,.22,.03,.58,.04,1,0,.73-.08,1.61-.18,2.48-.12"/><path class="cls-2" d="M109.43,23.02c.18,.11,.23,.35,.12,.52-.11,.18-.34,.23-.52,.13-.17-.1-.28-.11-.32-.1-.04,0-.08,.03-.14,.12-.15,.21-.27,.65-.36,1.16-.14,.58-.33,1.09-.38,1.44-.01,.16,0,.31,0,.32,0,0-.03-.05-.02-.03,.01,.02-.12-.1-.08-.08,.04,.02-.15-.04-.12-.04,.03,0-.06,0-.05,0,.16-.04,.9-.94,1.77-1.75,.95-.89,2.1-1.55,3.22-2.01,1.09-.45,2.11-.7,2.89-.71,.32,0,.61,.04,.86,.18,.25,.14,.45,.41,.48,.71,.03,.26,.04,.68-.22,1.1-.51,.85-1.57,1.59-2.77,2.32-1.22,.74-2.55,1.4-3.65,1.95-.8,.4-1.48,.65-1.87,.85-.18,.09-.28,.19-.29,.21,0,0,.01-.03,0-.01,0,.02,0-.11,0-.08,0,.07-.12-.2-.09-.17,.02,.02,1.05-.04,2-.1,.82-.04,1.59-.05,2.18,0,.33,.03,.66,0,.94,.29,.15,.15,.18,.37,.15,.51-.03,.14-.09,.25-.15,.36-.14,.22-.33,.43-.57,.66-.49,.47-1.12,.97-1.76,1.4-.72,.49-1.45,.85-1.88,1.14-.15,.1-.28,.17-.36,.22-.04,.02-.06,.03-.06,.04,0,0,.05-.06,.03-.04-.02,.03,.07-.22,.06-.15-.01,.07-.05-.25-.02-.19,.03,.08-.13-.16-.1-.13,.02,.02-.06-.04-.05-.03,.02,.01-.01,0,.01,0,.05,.01,.14,.03,.25,.05,.23,.03,.53,.06,.8,.09,1.12,.09,2.39,.21,3.03,1.03,.2,.27,.32,.62,.28,.99-.06,.59-.5,1.07-1.01,1.53-.52,.47-1.15,.89-1.76,1.23-.61,.35-1.24,.54-1.77,.62-.28,.04-.55,.06-.79,.04-.12-.01-.24-.03-.36-.08-.12-.05-.25-.14-.33-.29-.07-.13-.07-.26-.05-.36,.02-.09,.05-.17,.09-.23,.07-.13,.17-.25,.28-.38,.23-.25,.51-.5,.77-.71,.68-.55,1.57-.79,2.34-.92,.35-.06,.71-.11,1.08-.04,.5,.1,.94,.4,1.16,.84,.17,.33,.14,.7,.05,1.04-.09,.34-.25,.67-.43,.96-.38,.62-1.04,.94-1.46,1.2-.2,.12-.35,.21-.4,.27h-.01s.05-.11,.04-.06c-.02,.05-.04-.32,0-.23,.03,.08-.16-.17-.13-.15,.03,.01,1.11-.08,2.08-.01,.72,.04,1.46,.21,2.06,.69,.56,.45,.88,1.14,1.01,1.83,.15,.86-.25,1.67-.67,2.36-.25,.43-.54,.83-.86,1.2-.39,.44-.82,.86-1.4,1.22-.42,.26-.94,.46-1.64,.76-1.3,.55-3.1,1.35-5.31,2.33-1.18,.52-2.43,1.13-3.77,1.71-1.71,.74-3.54,1.42-5.52,2.02-1.43,.43-2.96,.81-4.7,1.15-2.4,.47-5.19,.87-8.59,1.25-3.65,.41-7.91,.75-12.69,1.11-1.34,.1-2.71,.19-4.1,.28-1.11,.08-2.24,.13-3.39,.2-4.17,.23-8.58,.64-13,.86-2.89,.14-5.77,.12-8.61,.1-1.23,0-2.46,.01-3.68-.01-4.16-.04-8.26-.3-12.19-.76-2.33-.28-4.52-.75-6.62-1.29-4.44-1.13-8.38-2.69-11.51-4.51-2.93-1.7-5.12-3.65-6.19-5.9-1.31-2.76-.78-6.08,1.66-9.37,1.13-1.52,2.59-3.05,4.3-4.57,2.08-1.85,4.6-3.65,7.5-5.42,2.96-1.81,6.3-3.58,9.99-5.33,3.16-1.5,6.56-2.96,10.13-4.38,3.47-1.38,7.15-2.62,10.94-3.85,1.67-.54,3.37-1.14,5.15-1.71,2.13-.68,4.39-1.34,6.8-2.05,10.23-3.01,21.21-5.02,32.36-6.59,8.95-1.26,18-2.01,26.91-2.44,6.71-.32,13.3-.41,19.62-.29,6.27,.12,12.24,.42,17.75,.97,3.52,.36,6.8,.91,9.85,1.51,3.04,.59,5.84,1.25,8.4,1.99,2.51,.73,4.77,1.52,6.77,2.39,2.91,1.26,5.18,2.77,6.88,4.26,2.06,1.82,3.38,3.62,3.32,5.6-.03,1.27-.56,2.6-1.51,3.91-.98,1.36-2.41,2.75-4.23,4.18-1.37,1.09-2.94,2.18-4.73,3.24-2.42,1.43-5.14,2.88-8.08,4.34-2.98,1.48-6.16,2.96-9.49,4.41-8.26,3.55-16.91,7.17-24.59,9.27-.14,.04-.29-.05-.33-.19-.04-.14,.04-.29,.18-.33,7.6-2.17,16.19-5.86,24.41-9.48,3.32-1.44,6.5-2.9,9.47-4.36,2.93-1.44,5.64-2.88,8.04-4.29,1.77-1.03,3.33-2.08,4.69-3.13,1.79-1.4,3.16-2.75,4.09-4.04,.89-1.24,1.35-2.43,1.38-3.54,.02-1.68-1.14-3.27-3.15-5.01-1.65-1.42-3.86-2.86-6.7-4.06-1.97-.84-4.2-1.61-6.68-2.31-2.53-.72-5.31-1.37-8.33-1.94-3.04-.58-6.29-1.11-9.77-1.45-5.48-.55-11.42-.86-17.67-.98-6.29-.12-12.87-.04-19.55,.27-8.88,.41-17.91,1.15-26.82,2.39-11.12,1.56-22.06,3.55-32.23,6.54-2.41,.71-4.67,1.36-6.78,2.04-1.77,.57-3.47,1.16-5.15,1.71-3.79,1.23-7.45,2.46-10.9,3.83-3.55,1.41-6.93,2.87-10.07,4.36-3.67,1.74-6.98,3.5-9.91,5.29-2.86,1.75-5.34,3.53-7.37,5.33-1.68,1.49-3.11,2.97-4.19,4.42-1.18,1.58-1.89,3.1-2.14,4.52-.24,1.39-.05,2.72,.53,3.96,.95,2.04,2.99,3.93,5.83,5.6,3.05,1.79,6.93,3.35,11.31,4.48,2.08,.54,4.24,1.02,6.53,1.31,3.89,.5,7.97,.8,12.12,.89,1.21,.01,2.43-.01,3.67-.01,2.83,0,5.71,0,8.57-.15,4.41-.23,8.81-.66,13-.91,1.16-.07,2.28-.13,3.39-.21,1.39-.1,2.76-.2,4.09-.31,4.78-.37,9.02-.73,12.66-1.15,3.38-.39,6.15-.82,8.51-1.29,1.72-.34,3.22-.71,4.62-1.13,1.95-.59,3.75-1.26,5.44-1.99,1.31-.57,2.56-1.18,3.76-1.71,2.21-.97,4.01-1.77,5.32-2.32,.72-.3,1.21-.5,1.54-.7,.49-.31,.87-.66,1.22-1.06,.29-.33,.54-.69,.77-1.08,.38-.63,.66-1.29,.57-1.81-.09-.54-.35-1.07-.71-1.36-.42-.34-.98-.5-1.62-.54-.42-.03-.88,0-1.31,.02-.41,.02-.75,.08-1.1-.1-.05-.02-.13-.08-.19-.18-.06-.1-.06-.23-.04-.32,.04-.16,.12-.23,.19-.3,.13-.13,.3-.24,.5-.37,.46-.28,1.01-.57,1.24-.94,.15-.24,.28-.5,.34-.74,.06-.23,.06-.42,0-.51-.1-.21-.33-.38-.63-.44-.21-.04-.49-.02-.81,.04-.7,.12-1.47,.35-1.99,.77-.24,.2-.49,.43-.67,.63-.08,.1-.15,.18-.17,.23-.01,.02,0-.02,0,0,0,.01,0-.09,0-.06,0,.03-.06-.14-.04-.11,.03,.05-.06-.06-.06-.06,.01,0,.06,.02,.12,.02,.14,.01,.36,0,.61-.04,.44-.06,.98-.22,1.5-.51,.57-.32,1.16-.71,1.62-1.13,.45-.4,.73-.81,.75-1.02,.01-.16-.03-.29-.12-.4-.3-.4-1.4-.67-2.46-.77-.28-.03-.58-.06-.84-.1-.13-.02-.24-.04-.34-.07-.05-.01-.1-.03-.16-.06-.07-.04-.28-.14-.22-.43,.03-.17,.13-.24,.19-.28,.05-.04,.1-.06,.15-.09,.1-.05,.2-.11,.31-.18,.49-.34,1.2-.69,1.87-1.15,.59-.41,1.19-.9,1.63-1.33,.21-.21,.36-.39,.44-.52,.03-.06,.04-.06,.04-.07,0-.01,.02,.13,0,.08-.01-.04,.12,.16,.08,.13-.03-.03,0,0-.07-.02-.09-.02-.22-.03-.38-.04-.53-.04-1.28-.04-2.08,0-.44,.02-.91,.07-1.35,.09-.43,.02-.82,.07-1.16-.19-.11-.08-.21-.23-.23-.39-.02-.16,.04-.29,.1-.4,.13-.21,.33-.36,.58-.49,.48-.25,1.13-.47,1.89-.85,2.24-1.12,5.32-2.66,6.09-3.97,.14-.24,.13-.41,.11-.61,0-.05,0-.05-.07-.09-.08-.04-.25-.08-.47-.08-1.3,0-3.85,.88-5.58,2.49-.4,.37-.76,.78-1.09,1.15-.33,.35-.59,.68-1.01,.78-.14,.03-.33,.02-.46-.09-.14-.1-.19-.24-.21-.35-.04-.21-.02-.4,0-.61,.03-.46,.19-.98,.27-1.49,.12-.56,.24-1.09,.55-1.49,.15-.2,.39-.38,.67-.41,.28-.04,.57,.05,.84,.22"/></g></g></g></svg>