<?xml version="1.0" encoding="UTF-8"?><svg id="Layer_2" xmlns="http://www.w3.org/2000/svg" viewBox="0 0 174.54 133.73"><defs><style>.cls-1{fill:#303030;}.cls-2{font-family:Helvetica, Helvetica;font-size:8.66px;opacity:0;}</style></defs><g id="Layer_1-2"><g><text class="cls-2" transform="translate(79.15 72.16)"><tspan x="0" y="0">post</tspan></text><g><path class="cls-1" d="M3.97,65.86c.18-.1,.42-.03,.52,.15,.1,.18,.03,.42-.15,.52-1.86,1.02-2.9,2.03-3.3,2.79-.15,.29-.24,.54-.26,.7-.02,.15,0,.18,.02,.2,.02,.02,.08,.05,.25,.04,.19-.02,.48-.1,.85-.28,.91-.43,2.12-1.31,3.59-2.52,1.54-1.27,3.33-2.9,5.36-4.8,2.12-1.99,4.41-4.32,6.89-6.91,2.47-2.58,5.13-5.35,7.87-8.38,1.01-1.12,1.97-2.33,2.98-3.53,4.59-5.48,9.52-10.98,13.99-16.66,1.06-1.34,2.09-2.7,3.11-4.04,1.7-2.22,3.35-4.38,4.96-6.49,.92-1.21,1.87-2.42,2.83-3.64,2.26-2.89,4.27-5.34,5.95-7.29,1.62-1.88,2.92-3.31,3.95-4.3,.9-.88,1.52-1.37,2.08-1.4,.18,0,.39,.03,.53,.19,.14,.15,.18,.35,.17,.54-.02,.37-.18,.82-.44,1.42-.62,1.45-1.82,3.34-3.16,5.69-.96,1.69-2.04,3.67-3.27,6.01-1.27,2.41-2.72,5.19-4.31,8.48-.59,1.23-1.2,2.56-1.84,3.98-.5,1.1-1.03,2.25-1.57,3.47-1.28,2.94-2.51,6.22-3.87,9.72-1.33,3.44-2.82,7.07-4.28,10.94-.82,2.18-1.64,4.4-2.44,6.65-.65,1.82-1.27,3.69-1.9,5.61-.76,2.33-1.53,4.77-2.31,7.32-2.05,6.79-4.28,13.4-6.06,19.43-.56,1.89-1.07,3.66-1.52,5.28-.77,2.8-1.49,5.46-2.16,7.97-.66,2.47-1.27,4.78-1.8,6.91-.67,2.65-1.24,5.01-1.75,7.13-.5,2.06-.93,3.89-1.34,5.51-.6,2.39-1.23,4.3-1.76,5.86-.53,1.54-1.02,2.75-1.49,3.66-.31,.61-.58,1.1-.86,1.45-.14,.17-.28,.32-.47,.42-.19,.1-.47,.12-.68,.01-.25-.13-.44-.38-.58-.7-.15-.34-.26-.79-.34-1.39-.13-1.01-.23-2.27-.26-3.75-.03-1.52,0-3.26,.15-5.16,.31-3.96,1.2-8.52,2.53-13.38,1.29-4.75,3.27-9.68,5.65-14.9,1.27-2.8,2.54-5.69,3.97-8.51,1.33-2.64,2.78-5.17,4.31-7.56,1.72-2.68,3.45-5.33,5.2-7.84,2.44-3.49,4.88-6.75,7.27-9.69,2.42-2.97,4.72-5.66,6.88-7.96,1.35-1.43,2.64-2.67,3.86-3.75,1.19-1.05,2.29-1.95,3.28-2.72,1.19-.92,2.2-1.66,3.06-2.21,.82-.52,1.48-.88,2.02-1.05,.26-.08,.49-.12,.71-.11,.22,.02,.45,.12,.58,.3,.13,.18,.16,.41,.14,.62-.02,.21-.09,.43-.19,.67-.29,.71-.87,1.47-1.47,2.28-1.1,1.52-2.45,3.09-3.62,4.56-1.27,1.6-2.15,3.14-2.54,4.19-.13,.34-.19,.59-.19,.7,0,.04-.03-.02-.01,0,.02,.03-.06-.04-.04-.04,.24,.07,1.08-.11,2.17-.83,.99-.67,2.03-1.93,3.25-3.05,.93-.86,1.96-1.58,2.89-2.22,1.13-.77,2.2-1.22,3.06-1.44,.7-.17,1.32-.05,1.76,.27,.43,.32,.67,.78,.83,1.21,.32,.91,.49,1.76,.69,1.94,.04,.04,.07,.05,.14,.06,.08,0,.2-.01,.35-.07,.22-.08,.53-.3,.93-.65,.84-.74,1.87-1.86,2.97-3.01,.7-.72,1.41-1.43,2.06-2.05,.76-.74,1.45-1.28,1.98-1.63,.31-.2,.57-.35,.87-.37,.15-.01,.34,.02,.48,.13,.15,.11,.23,.27,.27,.41,.15,.56-.04,1.13-.18,1.69-.16,.64-.38,1.21-.45,1.59-.05,.24-.07,.29-.05,.34,.02,.04-.05-.05-.04-.05,0,0,0,0,.03,0,.07,.01,.18,0,.31-.03,.3-.1,.86-.8,1.34-1.39,.2-.25,.37-.47,.54-.63,.1-.1,.22-.19,.41-.22,.1-.01,.22,0,.33,.06,.11,.07,.2,.18,.23,.29,.13,.39-.06,.58-.17,.79-.1,.21-.21,.41-.25,.53-.03,.1-.03,.17-.02,.19,0,0-.05-.04-.04-.04,.07,.03,.37,.03,.78-.09,.57-.18,1.33-.79,2.17-1.35,.8-.52,1.61-1.01,2.36-1.39,1.17-.6,2.19-.57,2.92-.55,.63,.02,1.16,.09,1.63,.02,.5-.08,.95-.34,1.15-.6,.1-.13,.11-.17,.1-.21-.03-.16-.13-.36-.27-.51-.09-.09-.4-.19-.82-.21-.45-.02-.97,0-1.47-.04-.97-.08-1.85-.5-2.42-1.06-.32-.3-.49-.69-.55-1.05-.04-.27-.1-.59,.06-.91,.09-.19,.25-.27,.38-.32,.12-.04,.24-.06,.36-.08,.25-.04,.52-.08,.82-.17,.33-.11,.77-.34,1.33-.68,1.63-.98,3.77-2.92,6.08-4.98,1.63-1.46,3.21-2.96,4.71-4.35,1.17-1.09,2.27-2.09,3.22-2.97,2.03-1.9,3.13-3.07,4.21-4.22,.43-.46,.9-.96,1.45-1.54,1.66-1.73,3.84-3.93,5.74-4.93,.43-.23,.83-.41,1.24-.46,.41-.05,.86,.09,1.14,.42,.49,.57,.59,1.51,.53,2.78-.04,.86-.17,1.89-.41,3.07-.25,1.21-.61,2.58-1.1,4.09-.51,1.54-1.15,3.21-1.93,5.01-.8,1.84-1.75,3.82-2.85,5.93-1.89,3.61-4.22,7.53-6.86,11.55-2.01,3.06-4.2,6.14-6.46,9.12-3,3.97-6.15,7.69-9.22,10.95-2.17,2.3-4.27,4.33-6.37,6.06-2.73,2.26-5.45,3.97-8.08,5.21-2.7,1.27-5.36,2.04-7.67,2.37-2.68,.38-4.88-.07-6.19-.99-.7-.48-1.13-1.25-1.01-2.07,.18-1.21,1.18-2.4,2.67-3.49,1.59-1.18,3.81-2.08,6.33-2.86,1.95-.6,4.13-.89,6.41-1.25,2.22-.35,4.57-.7,7.11-1.05,3.47-.48,7.23-1.17,11.29-1.71,2.17-.29,4.41-.52,6.68-.75,3.21-.32,6.5-.58,9.88-.78,4.73-.28,9.57-.33,14.3-.44,2.19-.05,4.35-.1,6.5-.18,3.32-.12,6.64-.25,9.95-.55,2.96-.27,5.83-.95,8.71-1.93,1.04-.35,2.11-.74,3.22-1.19,4.79-1.94,9.27-4.62,13.29-7.71,.89-.68,1.8-1.38,2.73-2.11,.89-.55,1.69-1.06,2.45-1.53,.13-.08,.29-.04,.37,.09,.06,.1,.05,.24-.03,.33-.61,.65-1.27,1.33-1.97,2.03-1,.78-1.93,1.47-2.82,2.15-4.11,3.13-8.68,5.84-13.59,7.81-1.13,.45-2.22,.85-3.28,1.21-2.95,.99-5.92,1.67-8.98,1.94-3.35,.3-6.68,.42-10.01,.53-2.16,.07-4.32,.11-6.51,.16-4.73,.11-9.57,.15-14.26,.42-3.37,.19-6.64,.45-9.84,.75-2.27,.22-4.51,.44-6.65,.73-4.04,.53-7.79,1.22-11.29,1.7-2.53,.35-4.88,.7-7.09,1.04-2.28,.35-4.42,.65-6.27,1.22-2.47,.76-4.61,1.64-6.06,2.7-1.37,1.01-2.17,2.08-2.29,2.87-.08,.47,.1,.83,.6,1.19,1.04,.73,3.03,1.18,5.54,.82,2.22-.32,4.78-1.07,7.4-2.31,2.56-1.21,5.2-2.88,7.88-5.09,2.06-1.7,4.14-3.71,6.29-5.98,3.04-3.23,6.17-6.93,9.15-10.87,2.24-2.97,4.41-6.03,6.4-9.08,2.62-4,4.93-7.89,6.81-11.47,1.1-2.09,2.04-4.05,2.83-5.87,.78-1.78,1.41-3.42,1.9-4.92,.49-1.47,.85-2.8,1.1-3.97,.24-1.14,.37-2.11,.42-2.92,.07-1.17-.08-1.92-.28-2.17-.09-.12-.17-.14-.37-.12-.22,.02-.55,.15-.94,.35-1.69,.9-3.88,3.06-5.51,4.77-.55,.57-1.01,1.07-1.44,1.54-.54,.58-1.07,1.16-1.72,1.83-.67,.69-1.47,1.48-2.52,2.46-.96,.89-2.06,1.88-3.22,2.97-1.5,1.39-3.09,2.89-4.73,4.35-2.31,2.06-4.46,4.02-6.21,5.07-.6,.35-1.09,.6-1.54,.73-.37,.11-.69,.15-.92,.19-.11,.02-.19,.03-.22,.05-.01,0,.02-.02,0,0-.02,.01,.1-.13,.07-.09-.03,.05-.03,.21,0,.43,.03,.2,.13,.43,.31,.61,.42,.4,1.16,.76,1.93,.81,.44,.03,.95,.01,1.45,.04,.49,.03,1.01,.08,1.36,.45,.26,.29,.42,.63,.46,.96,.05,.31-.09,.59-.24,.79-.35,.49-.97,.83-1.66,.95-.62,.11-1.2,.03-1.79,.02-.72-.02-1.53-.04-2.51,.46-.7,.36-1.49,.84-2.27,1.35-.8,.52-1.56,1.18-2.39,1.45-.48,.16-.93,.28-1.37,.12-.27-.11-.46-.35-.52-.59-.06-.23-.03-.47,.04-.69,.09-.27,.23-.49,.33-.68,.05-.09,.09-.17,.11-.22,0-.02,0-.02,.01-.03,0,0,.02,.15,0,.09-.02-.06,.22,.25,.15,.2-.08-.05,.26,.05,.21,.05-.05,0,.09-.03,.08-.02,0,0,0,0,0,0-.09,.1-.27,.31-.47,.56-.45,.57-.93,1.41-1.73,1.68-.22,.08-.46,.12-.7,.1-.24-.03-.53-.14-.69-.41-.18-.34-.12-.65-.06-.95,.11-.52,.35-1.07,.5-1.64,.14-.54,.25-1.08,.21-1.25,0-.02,.09,.09,.05,.05-.04-.04,.1,.04,.1,.04-.03,0-.21,.06-.47,.22-.49,.3-1.15,.8-1.9,1.5-.64,.61-1.34,1.31-2.02,2.03-1.09,1.14-2.11,2.28-3,3.07-.42,.38-.77,.67-1.15,.83-.25,.1-.5,.15-.74,.14-.24-.02-.48-.11-.66-.27-.61-.56-.63-1.48-.91-2.3-.12-.35-.29-.65-.52-.83-.23-.18-.55-.27-1.06-.15-.77,.18-1.76,.59-2.82,1.3-.92,.62-1.92,1.33-2.8,2.14-1.17,1.08-2.18,2.37-3.32,3.16-1.16,.81-2.09,1.21-2.84,1.05-.2-.05-.38-.16-.5-.32-.12-.16-.16-.35-.16-.52,0-.34,.1-.67,.25-1.05,.48-1.16,1.42-2.73,2.77-4.36,1.21-1.46,2.58-3,3.69-4.47,.6-.81,1.16-1.55,1.4-2.13,.08-.19,.12-.36,.13-.47,0-.1,0-.12,0-.13,0,0,.01,0-.06,0-.08,0-.24,.02-.43,.08-.44,.14-1.06,.47-1.84,.98-.83,.54-1.82,1.26-2.99,2.18-.98,.76-2.08,1.65-3.25,2.68-1.2,1.06-2.49,2.28-3.82,3.69-2.15,2.28-4.45,4.95-6.86,7.9-2.39,2.93-4.83,6.16-7.26,9.64-1.75,2.49-3.47,5.13-5.19,7.81-1.52,2.36-2.95,4.88-4.28,7.5-1.41,2.79-2.67,5.68-3.94,8.49-2.36,5.2-4.33,10.1-5.61,14.79-1.3,4.83-2.16,9.36-2.44,13.25-.14,1.88-.17,3.58-.12,5.08,.04,1.45,.15,2.68,.28,3.66,.07,.55,.17,.93,.28,1.17,.09,.21,.18,.28,.2,.29,.03,.01-.09,0-.08,0,.03-.01,.11-.08,.2-.2,.21-.26,.47-.72,.77-1.31,.43-.86,.89-2.04,1.4-3.56,.52-1.55,1.13-3.43,1.72-5.79,.4-1.61,.84-3.44,1.33-5.5,.51-2.12,1.08-4.49,1.75-7.14,.54-2.14,1.15-4.45,1.82-6.92,.68-2.51,1.41-5.17,2.18-7.97,.44-1.62,.95-3.4,1.51-5.29,1.81-6.05,4.06-12.65,6.12-19.42,.78-2.56,1.55-5,2.32-7.34,.63-1.93,1.26-3.8,1.92-5.63,.81-2.25,1.63-4.48,2.45-6.66,1.47-3.88,2.97-7.51,4.31-10.94,1.37-3.5,2.61-6.78,3.91-9.74,.54-1.23,1.08-2.38,1.57-3.48,.64-1.42,1.25-2.76,1.85-4,1.6-3.3,3.07-6.08,4.34-8.49,1.24-2.35,2.32-4.33,3.29-6.03,1.35-2.36,2.55-4.26,3.14-5.62,.25-.57,.37-.99,.38-1.18,0-.08,.04-.02,.01-.05-.03-.03,.05,.02,0,.03-.15,0-.79,.37-1.66,1.21-1,.97-2.29,2.39-3.89,4.27-1.67,1.95-3.67,4.39-5.92,7.28-.95,1.23-1.89,2.44-2.81,3.64-1.61,2.11-3.25,4.28-4.96,6.5-1.02,1.33-2.06,2.7-3.12,4.05-4.48,5.71-9.4,11.24-13.96,16.71-1,1.2-1.96,2.42-2.99,3.56-2.75,3.04-5.42,5.82-7.88,8.4-2.48,2.59-4.77,4.94-6.91,6.95-2.04,1.91-3.84,3.54-5.4,4.83-1.49,1.23-2.73,2.14-3.75,2.62-.44,.21-.81,.32-1.14,.35-.32,.02-.63-.06-.84-.26-.24-.23-.29-.57-.25-.87,.04-.31,.17-.62,.36-.96,.5-.95,1.65-2.04,3.6-3.1"/><path class="cls-1" d="M151.05,28.53c.13-.17,.37-.2,.53-.07,.17,.13,.2,.37,.07,.53-.13,.17-.34,.59-.73,1.43-.27,.58-.58,1.36-1.01,2.3-.79,1.73-1.86,3.89-3.17,6.16-1.04,1.8-2.27,3.58-3.57,5.35-1.36,1.85-2.76,3.7-4.17,5.28-2.6,2.88-5.34,4.75-7.94,5.49-2.51,.71-4.97,.32-6.85-1.11-.12-.09-.14-.26-.05-.38,.09-.12,.25-.14,.37-.05,1.77,1.3,4.01,1.62,6.35,.92,2.44-.73,5.05-2.54,7.56-5.37,1.39-1.55,2.78-3.38,4.13-5.22,1.3-1.76,2.52-3.52,3.55-5.28,1.3-2.25,2.35-4.38,3.12-6.1,.42-.92,.72-1.7,1-2.31,.39-.85,.6-1.29,.81-1.58"/><path class="cls-1" d="M129.91,38.92c-.16,.14-.4,.12-.54-.03-.14-.16-.12-.4,.03-.54h0c.48-.41,1.16-.43,1.79-.18,.65,.26,1.33,.77,2.08,1.46,.81,.71,1.61,1.67,2.54,2.65,2.19,2.36,5.11,4.81,7.42,6.99,1.27,1.25,2.24,2.29,2.89,3.13,.31,.39,.54,.73,.69,1.02,.14,.28,.25,.52,.16,.78-.05,.14-.21,.21-.35,.15-.11-.04-.18-.16-.17-.28,0-.02-.04-.13-.17-.34-.15-.23-.39-.53-.7-.89-.67-.76-1.66-1.75-2.94-2.94-2.27-2.17-5.2-4.65-7.42-7.07-.92-1.03-1.68-2-2.42-2.7-.71-.64-1.35-1.09-1.86-1.28-.47-.18-.79-.14-1.03,.08"/></g></g></g></svg>