<?xml version="1.0" encoding="UTF-8"?><svg id="Layer_2" xmlns="http://www.w3.org/2000/svg" viewBox="0 0 1017.01 1454"><g id="Layer_1-2"><g><g><path d="M24.04,33V15H111.59v18h-7.4c-8.35,0-14.44,7.97-18.26,23.89-2.42,10.41-3.62,35.45-3.62,75.11V456.28c0,49.89-1.68,90.33-5.02,121.3-3.35,30.97-9.12,57.95-17.31,80.94-8.2,22.98-18.09,34.48-29.68,34.48-9.39,0-16.79-7.58-22.18-22.7-5.4-15.14-8.1-32.48-8.1-52.02,0-15.95,1.24-28,3.73-36.14,3.28-10.09,7.12-15.14,11.51-15.14,3.18,0,6.04,3.41,8.59,10.22,2.54,6.81,5.75,24.98,9.63,54.5,2.29,17.53,5.23,26.28,8.81,26.28,2.69,0,5.2-5.38,7.54-16.12,2.34-10.75,3.51-29.83,3.51-57.2V132c0-33.48-.65-55.59-1.95-66.33-1-8.12-3.11-15.11-6.31-20.97-4.31-7.8-8.86-11.7-13.66-11.7h-7.36Z"/><path d="M260.83,33V15h71.82v18h-7.66c-8.01,0-14.17,10.91-18.47,32.7-2.1,10.09-3.15,33.53-3.15,70.3V404.73c0,66.45-2.03,118-6.09,154.64-4.06,36.66-12.03,68.08-23.9,94.3-11.88,26.22-28.04,39.33-48.48,39.33-22.25,0-39.14-12.55-50.66-37.62-11.53-25.08-19.69-58.8-24.5-101.16-3.21-29-4.81-83.41-4.81-163.22V132c0-40.62-1.73-67.28-5.18-79.97-3.46-12.69-9.04-19.03-16.75-19.03h-7.66V15h88.16v18h-7.81c-8.41,0-14.42,8.62-18.02,25.84-2.5,11.72-3.76,36.09-3.76,73.16V420.83c0,25.73,.73,55.22,2.18,88.45,1.45,33.23,4.09,59.14,7.9,77.7,3.81,18.58,9.31,33.89,16.48,45.94,7.18,12.06,15.98,18.08,26.42,18.08,13.35,0,25.29-9.44,35.82-28.34,10.54-18.89,17.74-43.08,21.6-72.56,3.86-29.48,5.8-79.42,5.8-149.8V132c0-41.28-1.4-67.14-4.2-77.55-3.91-14.3-9.71-21.45-17.42-21.45h-7.66Z"/><path d="M477.57,0V229h-5.55c-1.81-43.95-5.06-78.95-9.73-105.02-4.68-26.05-11.34-46.72-19.99-62.03-8.65-15.3-17.6-22.95-26.85-22.95-10.46,0-19.11,10.36-25.95,31.05-6.84,20.7-10.26,44.25-10.26,70.64,0,20.22,2.16,38.62,6.49,55.23,6.23,24.45,21.07,57.05,44.5,97.78,19.11,33.25,32.15,58.77,39.13,76.52,6.98,17.75,12.36,38.69,16.13,62.8,3.77,24.11,5.65,49.36,5.65,75.75,0,50.17-6.01,93.42-18.01,129.75s-27.45,54.48-46.33,54.48c-5.93,0-11.51-1.48-16.73-4.44-3.11-1.66-9.57-7.66-19.36-18.02s-16-15.55-18.61-15.55-4.5,2.47-5.95,7.41-2.53,15.14-3.24,30.59h-5.55v-227h5.55c2.61,47.53,6.13,83.11,10.55,106.7,4.42,23.61,11.17,43.23,20.27,58.86s19.06,23.44,29.91,23.44c12.55,0,22.47-10.78,29.76-32.36,7.28-21.56,10.93-47.06,10.93-76.48,0-16.34-1.38-32.84-4.13-49.52s-7.03-32.2-12.84-46.59c-3.91-9.8-14.62-30.5-32.14-62.12-17.53-31.62-30-56.88-37.4-75.77s-13.03-39.73-16.86-62.53c-3.83-22.8-5.75-47.88-5.75-75.23,0-47.53,5.64-88.48,16.91-122.84C383.38,17.19,397.71,0,415.12,0c10.87,0,22.39,8.61,34.57,25.83,5.64,8.12,9.61,12.17,11.93,12.17,2.61,0,4.75-2.52,6.41-7.55s3-15.19,4-30.45h5.55Z"/><path d="M686,15l2.16,155.77h-5.72c-1.11-27.34-2.61-46.88-4.52-58.59-3.11-18.88-7.25-32.78-12.42-41.73-5.17-8.95-11.97-13.44-20.41-13.44h-28.76v506c0,40.83,1.35,66.3,4.05,76.42,3.8,13.72,9.66,20.58,17.56,20.58h7.06v18h-86.93v-18h7.32c8.74,0,14.95-8.48,18.61-25.47,2.23-10.45,3.36-34.3,3.36-71.53V57h-24.53c-9.54,0-16.31,2.28-20.32,6.84-5.22,6.19-9.69,18.06-13.39,35.64-3.71,17.58-5.92,41.34-6.62,71.28h-5.72l2.16-155.77h167.07Z"/><path d="M791.06,660v18h-87.54v-18h7.24c8.45,0,14.59-7.95,18.42-23.89,2.41-10.41,3.62-35.44,3.62-75.11V132c0-33.48-.66-55.59-1.96-66.33-1.01-8.12-3.07-15.11-6.19-20.97-4.43-7.8-9.06-11.7-13.89-11.7h-7.24V15h87.54v18h-7.36c-8.31,0-14.37,7.97-18.17,23.89-2.5,10.41-3.75,35.45-3.75,75.11v429c0,33.5,.65,55.61,1.95,66.33,1,8.12,3.1,15.12,6.31,20.97,4.31,7.81,8.86,11.7,13.66,11.7h7.36Z"/><path d="M794.34,15h54.91l125.23,497.89V130c0-40.81-1.43-66.3-4.27-76.42-3.76-13.72-9.71-20.58-17.84-20.58h-7.17V15h71.82v18h-7.32c-8.75,0-14.95,8.5-18.61,25.47-2.24,10.47-3.36,34.31-3.36,71.53V688.73h-5.42L847.78,154.62v408.38c0,40.83,1.37,66.3,4.12,76.42,3.86,13.72,9.81,20.58,17.84,20.58h7.32v18h-71.82v-18h7.17c8.84,0,15.1-8.48,18.76-25.47,2.23-10.45,3.36-34.3,3.36-71.53V102c-5.92-22.5-10.41-37.34-13.47-44.53-3.06-7.17-7.55-13.86-13.47-20.06-2.91-2.94-7.33-4.41-13.24-4.41V15Z"/></g><g><path d="M339.66,776L39.26,1399h249.64c12.84,0,22.69-9.11,29.56-27.36,6.86-18.25,12.95-55.22,18.26-110.94l4.97,2.94-9.62,175.36H0v-18.05L286,815.67l-238.43,.33c-10.84,0-18.68,3.83-23.55,11.48-4.86,7.66-8.58,18.72-11.14,33.2-2.56,14.48-4.89,41.58-7,81.3H.17l4.32-165.98H339.66Z"/><path d="M413.76,1084h94.63v-191c0-33.64-.66-55.8-1.96-66.48-1.01-8.09-3.13-15.05-6.34-20.88-4.33-7.75-8.91-11.64-13.74-11.64h-7.24v-18h87.54v18h-7.24c-4.84,0-9.41,3.72-13.74,11.16-3.22,5.19-5.41,13.03-6.57,23.55s-1.73,31.95-1.73,64.3v429c0,33.5,.65,55.61,1.96,66.33,1.01,8.12,3.07,15.12,6.19,20.97,4.43,7.81,9.05,11.7,13.89,11.7h7.24v18h-87.54v-18h7.24c8.35,0,14.44-7.95,18.26-23.89,2.51-10.41,3.78-35.44,3.78-75.11v-202h-94.63v202c0,33.5,.65,55.61,1.95,66.33,1,8.12,3.1,15.12,6.31,20.97,4.31,7.81,8.86,11.7,13.66,11.7h7.36v18h-87.54v-18h7.24c8.45,0,14.59-7.95,18.42-23.89,2.41-10.41,3.62-35.44,3.62-75.11v-429c0-33.64-.66-55.8-1.96-66.48-1.01-8.09-3.07-15.05-6.19-20.88-4.43-7.75-9.06-11.64-13.89-11.64h-7.24v-18h87.54v18h-7.36c-4.81,0-9.36,3.72-13.66,11.16-3.11,5.19-5.26,13.03-6.46,23.55-1.2,10.52-1.8,31.95-1.8,64.3v191Z"/><path d="M714.07,1218h-79.13l-13.68,103.81c-3.41,25.73-5.11,44.95-5.11,57.66,0,10.09,1.48,18.97,4.44,26.62,2.96,7.66,9.36,12.62,19.19,14.91v18h-64.46v-18c8.52-4.88,14.04-11.23,16.56-19.06,5.11-15.64,10.78-47.42,17.01-95.33l71.89-545.61h5.07l71.05,551.53c5.72,44.31,10.91,73.06,15.58,86.25,4.66,13.19,11.16,20.59,19.49,22.22v18h-80.53v-18c8.13-1.3,13.62-5.7,16.48-13.2,2.86-7.5,4.29-16.64,4.29-27.41,0-14.34-2.01-37.02-6.02-68.02l-12.1-94.38Zm-4.61-36l-34.41-267.58-35.37,267.58h69.78Z"/><path d="M908.09,761c26.47,0,49.41,32.67,68.81,97.98,19.4,65.33,29.11,146.86,29.11,244.61s-9.78,184.25-29.33,250.72-43.22,99.69-70.99,99.69-51.66-32.41-70.77-97.25c-19.1-64.84-28.65-148.73-28.65-251.69s11.03-191.09,33.09-257.56c19.15-57.66,42.07-86.5,68.74-86.5Zm-2.86,35c-18.23,0-32.85,22.02-43.87,66.02-13.72,54.78-20.58,134.97-20.58,240.59s7.11,191.55,21.33,249.89c10.91,44.34,25.34,66.5,43.27,66.5,19.13,0,34.92-24.28,47.39-72.86,12.47-48.56,18.71-125.19,18.71-229.84,0-113.44-6.86-198.05-20.58-253.8-11.02-44.33-26.24-66.5-45.67-66.5Z"/></g></g></g></svg>